# MagicaVoxel @ Ephtracy

# material
mtllib eProjectile2.mtl
usemtl palette

# normals
vn -1 0 0
vn 1 0 0
vn 0 0 1
vn 0 0 -1
vn 0 -1 0
vn 0 1 0

# texcoords
vt 0.603516 0.5
vt 0.607422 0.5
vt 0.611328 0.5

# verts
v -14 0 1.5
v -14 0 0.5
v -14 0 -0.5
v -14 0 -1.5
v -14 1 1.5
v -14 1 0.5
v -14 1 -0.5
v -14 1 -1.5
v -13 0 2.5
v -13 0 1.5
v -13 0 -1.5
v -13 0 -2.5
v -13 1 2.5
v -13 1 1.5
v -13 1 -1.5
v -13 1 -2.5
v -12 0 3.5
v -12 0 2.5
v -12 0 -2.5
v -12 0 -3.5
v -12 1 3.5
v -12 1 2.5
v -12 1 -2.5
v -12 1 -3.5
v -10 0 2.5
v -10 0 1.5
v -10 0 -1.5
v -10 0 -2.5
v -10 1 2.5
v -10 1 1.5
v -10 1 -1.5
v -10 1 -2.5
v -9 0 -0.5
v -9 0 -1.5
v -9 1 -0.5
v -9 1 -1.5
v -8 0 1.5
v -8 0 0.5
v -8 0 -0.5
v -8 1 1.5
v -8 1 0.5
v -8 1 -0.5
v 7 0 1.5
v 7 0 0.5
v 7 0 -0.5
v 7 0 -1.5
v 7 1 1.5
v 7 1 0.5
v 7 1 -0.5
v 7 1 -1.5
v 8 0 2.5
v 8 0 1.5
v 8 0 -1.5
v 8 0 -2.5
v 8 1 2.5
v 8 1 1.5
v 8 1 -1.5
v 8 1 -2.5
v 9 0 3.5
v 9 0 2.5
v 9 0 -2.5
v 9 0 -3.5
v 9 1 3.5
v 9 1 2.5
v 9 1 -2.5
v 9 1 -3.5
v 11 0 2.5
v 11 0 1.5
v 11 0 -1.5
v 11 0 -2.5
v 11 1 2.5
v 11 1 1.5
v 11 1 -1.5
v 11 1 -2.5
v 12 0 -0.5
v 12 0 -1.5
v 12 1 -0.5
v 12 1 -1.5
v 13 0 1.5
v 13 0 0.5
v 13 0 -0.5
v 13 1 1.5
v 13 1 0.5
v 13 1 -0.5
v -13 0 1.5
v -13 0 0.5
v -13 0 -0.5
v -13 1 1.5
v -13 1 0.5
v -13 1 -0.5
v -12 0 -0.5
v -12 0 -1.5
v -12 1 -0.5
v -12 1 -1.5
v -11 0 2.5
v -11 0 1.5
v -11 0 -1.5
v -11 0 -2.5
v -11 1 2.5
v -11 1 1.5
v -11 1 -1.5
v -11 1 -2.5
v -9 0 3.5
v -9 0 2.5
v -9 0 -2.5
v -9 0 -3.5
v -9 1 3.5
v -9 1 2.5
v -9 1 -2.5
v -9 1 -3.5
v -8 0 2.5
v -8 0 1.5
v -8 0 -1.5
v -8 0 -2.5
v -8 1 2.5
v -8 1 1.5
v -8 1 -1.5
v -8 1 -2.5
v -7 0 1.5
v -7 0 0.5
v -7 0 -0.5
v -7 0 -1.5
v -7 1 1.5
v -7 1 0.5
v -7 1 -0.5
v -7 1 -1.5
v 8 0 1.5
v 8 0 0.5
v 8 0 -0.5
v 8 1 1.5
v 8 1 0.5
v 8 1 -0.5
v 9 0 -0.5
v 9 0 -1.5
v 9 1 -0.5
v 9 1 -1.5
v 10 0 2.5
v 10 0 1.5
v 10 0 -1.5
v 10 0 -2.5
v 10 1 2.5
v 10 1 1.5
v 10 1 -1.5
v 10 1 -2.5
v 12 0 3.5
v 12 0 2.5
v 12 0 -2.5
v 12 0 -3.5
v 12 1 3.5
v 12 1 2.5
v 12 1 -2.5
v 12 1 -3.5
v 13 0 2.5
v 13 0 1.5
v 13 0 -1.5
v 13 0 -2.5
v 13 1 2.5
v 13 1 1.5
v 13 1 -1.5
v 13 1 -2.5
v 14 0 1.5
v 14 0 0.5
v 14 0 -0.5
v 14 0 -1.5
v 14 1 1.5
v 14 1 0.5
v 14 1 -0.5
v 14 1 -1.5
v -12 0 3.5
v -12 1 3.5
v -11 0 3.5
v -11 1 3.5
v -10 0 3.5
v -10 1 3.5
v -9 0 3.5
v -9 1 3.5
v 9 0 3.5
v 9 1 3.5
v 10 0 3.5
v 10 1 3.5
v 11 0 3.5
v 11 1 3.5
v 12 0 3.5
v 12 1 3.5
v -13 0 2.5
v -13 1 2.5
v -12 0 2.5
v -12 1 2.5
v -9 0 2.5
v -9 1 2.5
v -8 0 2.5
v -8 1 2.5
v 8 0 2.5
v 8 1 2.5
v 9 0 2.5
v 9 1 2.5
v 12 0 2.5
v 12 1 2.5
v 13 0 2.5
v 13 1 2.5
v -14 0 1.5
v -14 1 1.5
v -13 0 1.5
v -13 1 1.5
v -8 0 1.5
v -8 1 1.5
v -7 0 1.5
v -7 1 1.5
v 7 0 1.5
v 7 1 1.5
v 8 0 1.5
v 8 1 1.5
v 13 0 1.5
v 13 1 1.5
v 14 0 1.5
v 14 1 1.5
v -13 0 -0.5
v -13 1 -0.5
v -12 0 -0.5
v -12 1 -0.5
v -9 0 -0.5
v -9 1 -0.5
v -8 0 -0.5
v -8 1 -0.5
v 8 0 -0.5
v 8 1 -0.5
v 9 0 -0.5
v 9 1 -0.5
v 12 0 -0.5
v 12 1 -0.5
v 13 0 -0.5
v 13 1 -0.5
v -12 0 -1.5
v -12 1 -1.5
v -11 0 -1.5
v -11 1 -1.5
v -10 0 -1.5
v -10 1 -1.5
v -9 0 -1.5
v -9 1 -1.5
v 9 0 -1.5
v 9 1 -1.5
v 10 0 -1.5
v 10 1 -1.5
v 11 0 -1.5
v 11 1 -1.5
v 12 0 -1.5
v 12 1 -1.5
v -11 0 -2.5
v -11 1 -2.5
v -10 0 -2.5
v -10 1 -2.5
v 10 0 -2.5
v 10 1 -2.5
v 11 0 -2.5
v 11 1 -2.5
v -11 0 2.5
v -11 1 2.5
v -10 0 2.5
v -10 1 2.5
v 10 0 2.5
v 10 1 2.5
v 11 0 2.5
v 11 1 2.5
v -13 0 1.5
v -13 1 1.5
v -11 0 1.5
v -11 1 1.5
v -10 0 1.5
v -10 1 1.5
v -8 0 1.5
v -8 1 1.5
v 8 0 1.5
v 8 1 1.5
v 10 0 1.5
v 10 1 1.5
v 11 0 1.5
v 11 1 1.5
v 13 0 1.5
v 13 1 1.5
v -14 0 -1.5
v -14 1 -1.5
v -13 0 -1.5
v -13 1 -1.5
v -8 0 -1.5
v -8 1 -1.5
v -7 0 -1.5
v -7 1 -1.5
v 7 0 -1.5
v 7 1 -1.5
v 8 0 -1.5
v 8 1 -1.5
v 13 0 -1.5
v 13 1 -1.5
v 14 0 -1.5
v 14 1 -1.5
v -13 0 -2.5
v -13 1 -2.5
v -12 0 -2.5
v -12 1 -2.5
v -9 0 -2.5
v -9 1 -2.5
v -8 0 -2.5
v -8 1 -2.5
v 8 0 -2.5
v 8 1 -2.5
v 9 0 -2.5
v 9 1 -2.5
v 12 0 -2.5
v 12 1 -2.5
v 13 0 -2.5
v 13 1 -2.5
v -12 0 -3.5
v -12 1 -3.5
v -11 0 -3.5
v -11 1 -3.5
v -10 0 -3.5
v -10 1 -3.5
v -9 0 -3.5
v -9 1 -3.5
v 9 0 -3.5
v 9 1 -3.5
v 10 0 -3.5
v 10 1 -3.5
v 11 0 -3.5
v 11 1 -3.5
v 12 0 -3.5
v 12 1 -3.5
v -12 0 3.5
v -11 0 3.5
v -10 0 3.5
v -9 0 3.5
v 9 0 3.5
v 10 0 3.5
v 11 0 3.5
v 12 0 3.5
v -13 0 2.5
v -12 0 2.5
v -11 0 2.5
v -10 0 2.5
v -9 0 2.5
v -8 0 2.5
v 8 0 2.5
v 9 0 2.5
v 10 0 2.5
v 11 0 2.5
v 12 0 2.5
v 13 0 2.5
v -14 0 1.5
v -13 0 1.5
v -11 0 1.5
v -10 0 1.5
v -8 0 1.5
v -7 0 1.5
v 7 0 1.5
v 8 0 1.5
v 10 0 1.5
v 11 0 1.5
v 13 0 1.5
v 14 0 1.5
v -14 0 0.5
v -13 0 0.5
v -8 0 0.5
v -7 0 0.5
v 7 0 0.5
v 8 0 0.5
v 13 0 0.5
v 14 0 0.5
v -14 0 -0.5
v -13 0 -0.5
v -12 0 -0.5
v -9 0 -0.5
v -8 0 -0.5
v -7 0 -0.5
v 7 0 -0.5
v 8 0 -0.5
v 9 0 -0.5
v 12 0 -0.5
v 13 0 -0.5
v 14 0 -0.5
v -14 0 -1.5
v -13 0 -1.5
v -12 0 -1.5
v -11 0 -1.5
v -10 0 -1.5
v -9 0 -1.5
v -8 0 -1.5
v -7 0 -1.5
v 7 0 -1.5
v 8 0 -1.5
v 9 0 -1.5
v 10 0 -1.5
v 11 0 -1.5
v 12 0 -1.5
v 13 0 -1.5
v 14 0 -1.5
v -13 0 -2.5
v -12 0 -2.5
v -11 0 -2.5
v -10 0 -2.5
v -9 0 -2.5
v -8 0 -2.5
v 8 0 -2.5
v 9 0 -2.5
v 10 0 -2.5
v 11 0 -2.5
v 12 0 -2.5
v 13 0 -2.5
v -12 0 -3.5
v -11 0 -3.5
v -10 0 -3.5
v -9 0 -3.5
v 9 0 -3.5
v 10 0 -3.5
v 11 0 -3.5
v 12 0 -3.5
v -12 1 3.5
v -11 1 3.5
v -10 1 3.5
v -9 1 3.5
v 9 1 3.5
v 10 1 3.5
v 11 1 3.5
v 12 1 3.5
v -13 1 2.5
v -12 1 2.5
v -11 1 2.5
v -10 1 2.5
v -9 1 2.5
v -8 1 2.5
v 8 1 2.5
v 9 1 2.5
v 10 1 2.5
v 11 1 2.5
v 12 1 2.5
v 13 1 2.5
v -14 1 1.5
v -13 1 1.5
v -11 1 1.5
v -10 1 1.5
v -8 1 1.5
v -7 1 1.5
v 7 1 1.5
v 8 1 1.5
v 10 1 1.5
v 11 1 1.5
v 13 1 1.5
v 14 1 1.5
v -14 1 0.5
v -13 1 0.5
v -8 1 0.5
v -7 1 0.5
v 7 1 0.5
v 8 1 0.5
v 13 1 0.5
v 14 1 0.5
v -14 1 -0.5
v -13 1 -0.5
v -12 1 -0.5
v -9 1 -0.5
v -8 1 -0.5
v -7 1 -0.5
v 7 1 -0.5
v 8 1 -0.5
v 9 1 -0.5
v 12 1 -0.5
v 13 1 -0.5
v 14 1 -0.5
v -14 1 -1.5
v -13 1 -1.5
v -12 1 -1.5
v -11 1 -1.5
v -10 1 -1.5
v -9 1 -1.5
v -8 1 -1.5
v -7 1 -1.5
v 7 1 -1.5
v 8 1 -1.5
v 9 1 -1.5
v 10 1 -1.5
v 11 1 -1.5
v 12 1 -1.5
v 13 1 -1.5
v 14 1 -1.5
v -13 1 -2.5
v -12 1 -2.5
v -11 1 -2.5
v -10 1 -2.5
v -9 1 -2.5
v -8 1 -2.5
v 8 1 -2.5
v 9 1 -2.5
v 10 1 -2.5
v 11 1 -2.5
v 12 1 -2.5
v 13 1 -2.5
v -12 1 -3.5
v -11 1 -3.5
v -10 1 -3.5
v -9 1 -3.5
v 9 1 -3.5
v 10 1 -3.5
v 11 1 -3.5
v 12 1 -3.5

# faces
f 5/2/1 2/2/1 1/2/1
f 6/3/1 3/3/1 2/3/1
f 6/2/1 2/2/1 5/2/1
f 7/2/1 4/2/1 3/2/1
f 7/3/1 3/3/1 6/3/1
f 8/2/1 4/2/1 7/2/1
f 13/3/1 10/3/1 9/3/1
f 14/3/1 10/3/1 13/3/1
f 15/2/1 12/2/1 11/2/1
f 16/2/1 12/2/1 15/2/1
f 21/1/1 18/1/1 17/1/1
f 22/1/1 18/1/1 21/1/1
f 23/2/1 20/2/1 19/2/1
f 24/2/1 20/2/1 23/2/1
f 29/3/1 26/3/1 25/3/1
f 30/3/1 26/3/1 29/3/1
f 31/3/1 28/3/1 27/3/1
f 32/3/1 28/3/1 31/3/1
f 35/3/1 34/3/1 33/3/1
f 36/3/1 34/3/1 35/3/1
f 40/2/1 38/2/1 37/2/1
f 41/3/1 39/3/1 38/3/1
f 41/2/1 38/2/1 40/2/1
f 42/3/1 39/3/1 41/3/1
f 47/2/1 44/2/1 43/2/1
f 48/3/1 45/3/1 44/3/1
f 48/2/1 44/2/1 47/2/1
f 49/2/1 46/2/1 45/2/1
f 49/3/1 45/3/1 48/3/1
f 50/2/1 46/2/1 49/2/1
f 55/3/1 52/3/1 51/3/1
f 56/3/1 52/3/1 55/3/1
f 57/2/1 54/2/1 53/2/1
f 58/2/1 54/2/1 57/2/1
f 63/1/1 60/1/1 59/1/1
f 64/1/1 60/1/1 63/1/1
f 65/2/1 62/2/1 61/2/1
f 66/2/1 62/2/1 65/2/1
f 71/3/1 68/3/1 67/3/1
f 72/3/1 68/3/1 71/3/1
f 73/3/1 70/3/1 69/3/1
f 74/3/1 70/3/1 73/3/1
f 77/3/1 76/3/1 75/3/1
f 78/3/1 76/3/1 77/3/1
f 82/2/1 80/2/1 79/2/1
f 83/3/1 81/3/1 80/3/1
f 83/2/1 80/2/1 82/2/1
f 84/3/1 81/3/1 83/3/1
f 85/2/2 86/2/2 88/2/2
f 86/3/2 87/3/2 89/3/2
f 88/2/2 86/2/2 89/2/2
f 89/3/2 87/3/2 90/3/2
f 91/3/2 92/3/2 93/3/2
f 93/3/2 92/3/2 94/3/2
f 95/3/2 96/3/2 99/3/2
f 99/3/2 96/3/2 100/3/2
f 97/3/2 98/3/2 101/3/2
f 101/3/2 98/3/2 102/3/2
f 103/1/2 104/1/2 107/1/2
f 107/1/2 104/1/2 108/1/2
f 105/2/2 106/2/2 109/2/2
f 109/2/2 106/2/2 110/2/2
f 111/3/2 112/3/2 115/3/2
f 115/3/2 112/3/2 116/3/2
f 113/2/2 114/2/2 117/2/2
f 117/2/2 114/2/2 118/2/2
f 119/2/2 120/2/2 123/2/2
f 120/3/2 121/3/2 124/3/2
f 123/2/2 120/2/2 124/2/2
f 121/2/2 122/2/2 125/2/2
f 124/3/2 121/3/2 125/3/2
f 125/2/2 122/2/2 126/2/2
f 127/2/2 128/2/2 130/2/2
f 128/3/2 129/3/2 131/3/2
f 130/2/2 128/2/2 131/2/2
f 131/3/2 129/3/2 132/3/2
f 133/3/2 134/3/2 135/3/2
f 135/3/2 134/3/2 136/3/2
f 137/3/2 138/3/2 141/3/2
f 141/3/2 138/3/2 142/3/2
f 139/3/2 140/3/2 143/3/2
f 143/3/2 140/3/2 144/3/2
f 145/1/2 146/1/2 149/1/2
f 149/1/2 146/1/2 150/1/2
f 147/2/2 148/2/2 151/2/2
f 151/2/2 148/2/2 152/2/2
f 153/3/2 154/3/2 157/3/2
f 157/3/2 154/3/2 158/3/2
f 155/2/2 156/2/2 159/2/2
f 159/2/2 156/2/2 160/2/2
f 161/2/2 162/2/2 165/2/2
f 162/3/2 163/3/2 166/3/2
f 165/2/2 162/2/2 166/2/2
f 163/2/2 164/2/2 167/2/2
f 166/3/2 163/3/2 167/3/2
f 167/2/2 164/2/2 168/2/2
f 171/1/3 170/1/3 169/1/3
f 172/1/3 170/1/3 171/1/3
f 173/3/3 172/3/3 171/3/3
f 174/3/3 172/3/3 173/3/3
f 175/1/3 174/1/3 173/1/3
f 176/1/3 174/1/3 175/1/3
f 179/1/3 178/1/3 177/1/3
f 180/1/3 178/1/3 179/1/3
f 181/3/3 180/3/3 179/3/3
f 182/3/3 180/3/3 181/3/3
f 183/1/3 182/1/3 181/1/3
f 184/1/3 182/1/3 183/1/3
f 187/3/3 186/3/3 185/3/3
f 188/3/3 186/3/3 187/3/3
f 191/3/3 190/3/3 189/3/3
f 192/3/3 190/3/3 191/3/3
f 195/3/3 194/3/3 193/3/3
f 196/3/3 194/3/3 195/3/3
f 199/3/3 198/3/3 197/3/3
f 200/3/3 198/3/3 199/3/3
f 203/2/3 202/2/3 201/2/3
f 204/2/3 202/2/3 203/2/3
f 207/2/3 206/2/3 205/2/3
f 208/2/3 206/2/3 207/2/3
f 211/2/3 210/2/3 209/2/3
f 212/2/3 210/2/3 211/2/3
f 215/2/3 214/2/3 213/2/3
f 216/2/3 214/2/3 215/2/3
f 219/3/3 218/3/3 217/3/3
f 220/3/3 218/3/3 219/3/3
f 223/3/3 222/3/3 221/3/3
f 224/3/3 222/3/3 223/3/3
f 227/3/3 226/3/3 225/3/3
f 228/3/3 226/3/3 227/3/3
f 231/3/3 230/3/3 229/3/3
f 232/3/3 230/3/3 231/3/3
f 235/3/3 234/3/3 233/3/3
f 236/3/3 234/3/3 235/3/3
f 239/3/3 238/3/3 237/3/3
f 240/3/3 238/3/3 239/3/3
f 243/3/3 242/3/3 241/3/3
f 244/3/3 242/3/3 243/3/3
f 247/3/3 246/3/3 245/3/3
f 248/3/3 246/3/3 247/3/3
f 251/3/3 250/3/3 249/3/3
f 252/3/3 250/3/3 251/3/3
f 255/3/3 254/3/3 253/3/3
f 256/3/3 254/3/3 255/3/3
f 257/3/4 258/3/4 259/3/4
f 259/3/4 258/3/4 260/3/4
f 261/3/4 262/3/4 263/3/4
f 263/3/4 262/3/4 264/3/4
f 265/3/4 266/3/4 267/3/4
f 267/3/4 266/3/4 268/3/4
f 269/3/4 270/3/4 271/3/4
f 271/3/4 270/3/4 272/3/4
f 273/3/4 274/3/4 275/3/4
f 275/3/4 274/3/4 276/3/4
f 277/3/4 278/3/4 279/3/4
f 279/3/4 278/3/4 280/3/4
f 281/2/4 282/2/4 283/2/4
f 283/2/4 282/2/4 284/2/4
f 285/2/4 286/2/4 287/2/4
f 287/2/4 286/2/4 288/2/4
f 289/2/4 290/2/4 291/2/4
f 291/2/4 290/2/4 292/2/4
f 293/2/4 294/2/4 295/2/4
f 295/2/4 294/2/4 296/2/4
f 297/2/4 298/2/4 299/2/4
f 299/2/4 298/2/4 300/2/4
f 301/2/4 302/2/4 303/2/4
f 303/2/4 302/2/4 304/2/4
f 305/2/4 306/2/4 307/2/4
f 307/2/4 306/2/4 308/2/4
f 309/2/4 310/2/4 311/2/4
f 311/2/4 310/2/4 312/2/4
f 313/2/4 314/2/4 315/2/4
f 315/2/4 314/2/4 316/2/4
f 315/3/4 316/3/4 317/3/4
f 317/3/4 316/3/4 318/3/4
f 317/2/4 318/2/4 319/2/4
f 319/2/4 318/2/4 320/2/4
f 321/2/4 322/2/4 323/2/4
f 323/2/4 322/2/4 324/2/4
f 323/3/4 324/3/4 325/3/4
f 325/3/4 324/3/4 326/3/4
f 325/2/4 326/2/4 327/2/4
f 327/2/4 326/2/4 328/2/4
f 338/1/5 330/1/5 329/1/5
f 339/3/5 331/3/5 330/3/5
f 339/1/5 330/1/5 338/1/5
f 340/1/5 332/1/5 331/1/5
f 340/3/5 331/3/5 339/3/5
f 341/1/5 332/1/5 340/1/5
f 344/1/5 334/1/5 333/1/5
f 345/3/5 335/3/5 334/3/5
f 345/1/5 334/1/5 344/1/5
f 346/1/5 336/1/5 335/1/5
f 346/3/5 335/3/5 345/3/5
f 347/1/5 336/1/5 346/1/5
f 350/3/5 338/3/5 337/3/5
f 350/3/5 339/3/5 338/3/5
f 351/3/5 339/3/5 350/3/5
f 352/3/5 342/3/5 341/3/5
f 352/3/5 341/3/5 340/3/5
f 353/3/5 342/3/5 352/3/5
f 356/3/5 345/3/5 344/3/5
f 356/3/5 344/3/5 343/3/5
f 357/3/5 345/3/5 356/3/5
f 358/3/5 347/3/5 346/3/5
f 358/3/5 348/3/5 347/3/5
f 359/3/5 348/3/5 358/3/5
f 361/2/5 350/2/5 349/2/5
f 362/2/5 350/2/5 361/2/5
f 363/2/5 354/2/5 353/2/5
f 364/2/5 354/2/5 363/2/5
f 365/2/5 356/2/5 355/2/5
f 366/2/5 356/2/5 365/2/5
f 367/2/5 360/2/5 359/2/5
f 368/2/5 360/2/5 367/2/5
f 369/3/5 362/3/5 361/3/5
f 370/3/5 362/3/5 369/3/5
f 373/3/5 364/3/5 363/3/5
f 374/3/5 364/3/5 373/3/5
f 375/3/5 366/3/5 365/3/5
f 376/3/5 366/3/5 375/3/5
f 379/3/5 368/3/5 367/3/5
f 380/3/5 368/3/5 379/3/5
f 381/2/5 370/2/5 369/2/5
f 382/3/5 371/3/5 370/3/5
f 382/2/5 370/2/5 381/2/5
f 383/3/5 371/3/5 382/3/5
f 386/3/5 373/3/5 372/3/5
f 387/2/5 374/2/5 373/2/5
f 387/3/5 373/3/5 386/3/5
f 388/2/5 374/2/5 387/2/5
f 389/2/5 376/2/5 375/2/5
f 390/3/5 377/3/5 376/3/5
f 390/2/5 376/2/5 389/2/5
f 391/3/5 377/3/5 390/3/5
f 394/3/5 379/3/5 378/3/5
f 395/2/5 380/2/5 379/2/5
f 395/3/5 379/3/5 394/3/5
f 396/2/5 380/2/5 395/2/5
f 397/2/5 383/2/5 382/2/5
f 398/3/5 384/3/5 383/3/5
f 398/2/5 383/2/5 397/2/5
f 399/3/5 384/3/5 398/3/5
f 400/3/5 386/3/5 385/3/5
f 401/2/5 387/2/5 386/2/5
f 401/3/5 386/3/5 400/3/5
f 402/2/5 387/2/5 401/2/5
f 403/2/5 391/2/5 390/2/5
f 404/3/5 392/3/5 391/3/5
f 404/2/5 391/2/5 403/2/5
f 405/3/5 392/3/5 404/3/5
f 406/3/5 394/3/5 393/3/5
f 407/2/5 395/2/5 394/2/5
f 407/3/5 394/3/5 406/3/5
f 408/2/5 395/2/5 407/2/5
f 409/2/5 399/2/5 398/2/5
f 410/3/5 400/3/5 399/3/5
f 410/2/5 399/2/5 409/2/5
f 411/2/5 401/2/5 400/2/5
f 411/3/5 400/3/5 410/3/5
f 412/2/5 401/2/5 411/2/5
f 413/2/5 405/2/5 404/2/5
f 414/3/5 406/3/5 405/3/5
f 414/2/5 405/2/5 413/2/5
f 415/2/5 407/2/5 406/2/5
f 415/3/5 406/3/5 414/3/5
f 416/2/5 407/2/5 415/2/5
f 417/1/6 418/1/6 426/1/6
f 418/3/6 419/3/6 427/3/6
f 426/1/6 418/1/6 427/1/6
f 419/1/6 420/1/6 428/1/6
f 427/3/6 419/3/6 428/3/6
f 428/1/6 420/1/6 429/1/6
f 421/1/6 422/1/6 432/1/6
f 422/3/6 423/3/6 433/3/6
f 432/1/6 422/1/6 433/1/6
f 423/1/6 424/1/6 434/1/6
f 433/3/6 423/3/6 434/3/6
f 434/1/6 424/1/6 435/1/6
f 425/3/6 426/3/6 438/3/6
f 426/3/6 427/3/6 438/3/6
f 438/3/6 427/3/6 439/3/6
f 429/3/6 430/3/6 440/3/6
f 428/3/6 429/3/6 440/3/6
f 440/3/6 430/3/6 441/3/6
f 432/3/6 433/3/6 444/3/6
f 431/3/6 432/3/6 444/3/6
f 444/3/6 433/3/6 445/3/6
f 434/3/6 435/3/6 446/3/6
f 435/3/6 436/3/6 446/3/6
f 446/3/6 436/3/6 447/3/6
f 437/2/6 438/2/6 449/2/6
f 449/2/6 438/2/6 450/2/6
f 441/2/6 442/2/6 451/2/6
f 451/2/6 442/2/6 452/2/6
f 443/2/6 444/2/6 453/2/6
f 453/2/6 444/2/6 454/2/6
f 447/2/6 448/2/6 455/2/6
f 455/2/6 448/2/6 456/2/6
f 449/3/6 450/3/6 457/3/6
f 457/3/6 450/3/6 458/3/6
f 451/3/6 452/3/6 461/3/6
f 461/3/6 452/3/6 462/3/6
f 453/3/6 454/3/6 463/3/6
f 463/3/6 454/3/6 464/3/6
f 455/3/6 456/3/6 467/3/6
f 467/3/6 456/3/6 468/3/6
f 457/2/6 458/2/6 469/2/6
f 458/3/6 459/3/6 470/3/6
f 469/2/6 458/2/6 470/2/6
f 470/3/6 459/3/6 471/3/6
f 460/3/6 461/3/6 474/3/6
f 461/2/6 462/2/6 475/2/6
f 474/3/6 461/3/6 475/3/6
f 475/2/6 462/2/6 476/2/6
f 463/2/6 464/2/6 477/2/6
f 464/3/6 465/3/6 478/3/6
f 477/2/6 464/2/6 478/2/6
f 478/3/6 465/3/6 479/3/6
f 466/3/6 467/3/6 482/3/6
f 467/2/6 468/2/6 483/2/6
f 482/3/6 467/3/6 483/3/6
f 483/2/6 468/2/6 484/2/6
f 470/2/6 471/2/6 485/2/6
f 471/3/6 472/3/6 486/3/6
f 485/2/6 471/2/6 486/2/6
f 486/3/6 472/3/6 487/3/6
f 473/3/6 474/3/6 488/3/6
f 474/2/6 475/2/6 489/2/6
f 488/3/6 474/3/6 489/3/6
f 489/2/6 475/2/6 490/2/6
f 478/2/6 479/2/6 491/2/6
f 479/3/6 480/3/6 492/3/6
f 491/2/6 479/2/6 492/2/6
f 492/3/6 480/3/6 493/3/6
f 481/3/6 482/3/6 494/3/6
f 482/2/6 483/2/6 495/2/6
f 494/3/6 482/3/6 495/3/6
f 495/2/6 483/2/6 496/2/6
f 486/2/6 487/2/6 497/2/6
f 487/3/6 488/3/6 498/3/6
f 497/2/6 487/2/6 498/2/6
f 488/2/6 489/2/6 499/2/6
f 498/3/6 488/3/6 499/3/6
f 499/2/6 489/2/6 500/2/6
f 492/2/6 493/2/6 501/2/6
f 493/3/6 494/3/6 502/3/6
f 501/2/6 493/2/6 502/2/6
f 494/2/6 495/2/6 503/2/6
f 502/3/6 494/3/6 503/3/6
f 503/2/6 495/2/6 504/2/6
