# MagicaVoxel @ Ephtracy

# material
mtllib playerProjectile.mtl
usemtl palette

# normals
vn -1 0 0
vn 1 0 0
vn 0 0 1
vn 0 0 -1
vn 0 -1 0
vn 0 1 0

# texcoords
vt 0.330078 0.5
vt 0.333984 0.5
vt 0.337891 0.5
vt 0.599609 0.5
vt 0.646484 0.5
vt 0.654297 0.5
vt 0.783203 0.5

# verts
v -4 0 1
v -4 0 -2
v -4 1 1
v -4 1 -2
v -3 0 2
v -3 0 1
v -3 0 -2
v -3 0 -3
v -3 1 2
v -3 1 1
v -3 1 -2
v -3 1 -3
v -2 0 3
v -2 0 2
v -2 0 -1
v -2 0 -2
v -2 1 3
v -2 1 2
v -2 1 -1
v -2 1 -2
v -1 0 1
v -1 0 -1
v -1 1 1
v -1 1 -1
v 1 0 3
v 1 0 2
v 1 0 -1
v 1 0 -2
v 1 1 3
v 1 1 2
v 1 1 -1
v 1 1 -2
v 2 0 1
v 2 0 -0
v 2 0 -2
v 2 0 -3
v 2 1 1
v 2 1 -0
v 2 1 -2
v 2 1 -3
v 3 0 -0
v 3 0 -2
v 3 1 -0
v 3 1 -2
v -3 0 -0
v -3 0 -2
v -3 1 -0
v -3 1 -2
v -2 0 1
v -2 0 -0
v -2 0 -2
v -2 0 -3
v -2 1 1
v -2 1 -0
v -2 1 -2
v -2 1 -3
v -1 0 3
v -1 0 2
v -1 0 -1
v -1 0 -2
v -1 1 3
v -1 1 2
v -1 1 -1
v -1 1 -2
v 1 0 1
v 1 0 -1
v 1 1 1
v 1 1 -1
v 2 0 3
v 2 0 2
v 2 0 -1
v 2 0 -2
v 2 1 3
v 2 1 2
v 2 1 -1
v 2 1 -2
v 3 0 2
v 3 0 1
v 3 0 -2
v 3 0 -3
v 3 1 2
v 3 1 1
v 3 1 -2
v 3 1 -3
v 4 0 1
v 4 0 -2
v 4 1 1
v 4 1 -2
v -2 0 3
v -2 1 3
v -1 0 3
v -1 1 3
v 1 0 3
v 1 1 3
v 2 0 3
v 2 1 3
v -3 0 2
v -3 1 2
v -2 0 2
v -2 1 2
v -1 0 2
v -1 1 2
v 1 0 2
v 1 1 2
v 2 0 2
v 2 1 2
v 3 0 2
v 3 1 2
v -4 0 1
v -4 1 1
v -3 0 1
v -3 1 1
v 3 0 1
v 3 1 1
v 4 0 1
v 4 1 1
v -2 0 -1
v -2 1 -1
v -1 0 -1
v -1 1 -1
v 1 0 -1
v 1 1 -1
v 2 0 -1
v 2 1 -1
v -3 0 -2
v -3 1 -2
v -2 0 -2
v -2 1 -2
v 2 0 -2
v 2 1 -2
v 3 0 -2
v 3 1 -2
v -2 0 1
v -2 1 1
v -1 0 1
v -1 1 1
v 1 0 1
v 1 1 1
v 2 0 1
v 2 1 1
v -3 0 -0
v -3 1 -0
v -2 0 -0
v -2 1 -0
v 2 0 -0
v 2 1 -0
v 3 0 -0
v 3 1 -0
v -1 0 -1
v -1 1 -1
v 0 0 -1
v 0 1 -1
v 1 0 -1
v 1 1 -1
v -4 0 -2
v -4 1 -2
v -3 0 -2
v -3 1 -2
v -2 0 -2
v -2 1 -2
v -1 0 -2
v -1 1 -2
v 1 0 -2
v 1 1 -2
v 2 0 -2
v 2 1 -2
v 3 0 -2
v 3 1 -2
v 4 0 -2
v 4 1 -2
v -3 0 -3
v -3 1 -3
v -2 0 -3
v -2 1 -3
v 2 0 -3
v 2 1 -3
v 3 0 -3
v 3 1 -3
v -2 0 3
v -1 0 3
v 1 0 3
v 2 0 3
v -3 0 2
v -2 0 2
v -1 0 2
v 1 0 2
v 2 0 2
v 3 0 2
v -4 0 1
v -3 0 1
v -2 0 1
v -1 0 1
v 0 0 1
v 1 0 1
v 2 0 1
v 3 0 1
v 4 0 1
v -3 0 -0
v -2 0 -0
v 2 0 -0
v 3 0 -0
v -2 0 -1
v -1 0 -1
v 0 0 -1
v 1 0 -1
v 2 0 -1
v -4 0 -2
v -3 0 -2
v -2 0 -2
v -1 0 -2
v 1 0 -2
v 2 0 -2
v 3 0 -2
v 4 0 -2
v -3 0 -3
v -2 0 -3
v 2 0 -3
v 3 0 -3
v -2 1 3
v -1 1 3
v 1 1 3
v 2 1 3
v -3 1 2
v -2 1 2
v -1 1 2
v 1 1 2
v 2 1 2
v 3 1 2
v -4 1 1
v -3 1 1
v -2 1 1
v -1 1 1
v 0 1 1
v 1 1 1
v 2 1 1
v 3 1 1
v 4 1 1
v -3 1 -0
v -2 1 -0
v 2 1 -0
v 3 1 -0
v -2 1 -1
v -1 1 -1
v 0 1 -1
v 1 1 -1
v 2 1 -1
v -4 1 -2
v -3 1 -2
v -2 1 -2
v -1 1 -2
v 1 1 -2
v 2 1 -2
v 3 1 -2
v 4 1 -2
v -3 1 -3
v -2 1 -3
v 2 1 -3
v 3 1 -3

# faces
f 3/3/1 2/3/1 1/3/1
f 4/3/1 2/3/1 3/3/1
f 9/3/1 6/3/1 5/3/1
f 10/3/1 6/3/1 9/3/1
f 11/6/1 8/6/1 7/6/1
f 12/6/1 8/6/1 11/6/1
f 17/4/1 14/4/1 13/4/1
f 18/4/1 14/4/1 17/4/1
f 19/5/1 16/5/1 15/5/1
f 20/5/1 16/5/1 19/5/1
f 23/2/1 22/2/1 21/2/1
f 24/2/1 22/2/1 23/2/1
f 29/4/1 26/4/1 25/4/1
f 30/4/1 26/4/1 29/4/1
f 31/5/1 28/5/1 27/5/1
f 32/5/1 28/5/1 31/5/1
f 37/3/1 34/3/1 33/3/1
f 38/3/1 34/3/1 37/3/1
f 39/6/1 36/6/1 35/6/1
f 40/6/1 36/6/1 39/6/1
f 43/3/1 42/3/1 41/3/1
f 44/3/1 42/3/1 43/3/1
f 45/3/2 46/3/2 47/3/2
f 47/3/2 46/3/2 48/3/2
f 49/3/2 50/3/2 53/3/2
f 53/3/2 50/3/2 54/3/2
f 51/6/2 52/6/2 55/6/2
f 55/6/2 52/6/2 56/6/2
f 57/4/2 58/4/2 61/4/2
f 61/4/2 58/4/2 62/4/2
f 59/5/2 60/5/2 63/5/2
f 63/5/2 60/5/2 64/5/2
f 65/1/2 66/1/2 67/1/2
f 67/1/2 66/1/2 68/1/2
f 69/4/2 70/4/2 73/4/2
f 73/4/2 70/4/2 74/4/2
f 71/5/2 72/5/2 75/5/2
f 75/5/2 72/5/2 76/5/2
f 77/3/2 78/3/2 81/3/2
f 81/3/2 78/3/2 82/3/2
f 79/6/2 80/6/2 83/6/2
f 83/6/2 80/6/2 84/6/2
f 85/3/2 86/3/2 87/3/2
f 87/3/2 86/3/2 88/3/2
f 91/4/3 90/4/3 89/4/3
f 92/4/3 90/4/3 91/4/3
f 95/4/3 94/4/3 93/4/3
f 96/4/3 94/4/3 95/4/3
f 99/3/3 98/3/3 97/3/3
f 100/3/3 98/3/3 99/3/3
f 103/7/3 102/7/3 101/7/3
f 104/7/3 102/7/3 103/7/3
f 107/3/3 106/3/3 105/3/3
f 108/3/3 106/3/3 107/3/3
f 111/3/3 110/3/3 109/3/3
f 112/3/3 110/3/3 111/3/3
f 115/3/3 114/3/3 113/3/3
f 116/3/3 114/3/3 115/3/3
f 119/5/3 118/5/3 117/5/3
f 120/5/3 118/5/3 119/5/3
f 123/5/3 122/5/3 121/5/3
f 124/5/3 122/5/3 123/5/3
f 127/6/3 126/6/3 125/6/3
f 128/6/3 126/6/3 127/6/3
f 131/6/3 130/6/3 129/6/3
f 132/6/3 130/6/3 131/6/3
f 133/3/4 134/3/4 135/3/4
f 135/3/4 134/3/4 136/3/4
f 137/3/4 138/3/4 139/3/4
f 139/3/4 138/3/4 140/3/4
f 141/3/4 142/3/4 143/3/4
f 143/3/4 142/3/4 144/3/4
f 145/3/4 146/3/4 147/3/4
f 147/3/4 146/3/4 148/3/4
f 149/2/4 150/2/4 151/2/4
f 151/2/4 150/2/4 152/2/4
f 151/1/4 152/1/4 153/1/4
f 153/1/4 152/1/4 154/1/4
f 155/3/4 156/3/4 157/3/4
f 157/3/4 156/3/4 158/3/4
f 159/5/4 160/5/4 161/5/4
f 161/5/4 160/5/4 162/5/4
f 163/5/4 164/5/4 165/5/4
f 165/5/4 164/5/4 166/5/4
f 167/3/4 168/3/4 169/3/4
f 169/3/4 168/3/4 170/3/4
f 171/6/4 172/6/4 173/6/4
f 173/6/4 172/6/4 174/6/4
f 175/6/4 176/6/4 177/6/4
f 177/6/4 176/6/4 178/6/4
f 184/4/5 180/4/5 179/4/5
f 185/4/5 180/4/5 184/4/5
f 186/4/5 182/4/5 181/4/5
f 187/4/5 182/4/5 186/4/5
f 190/3/5 185/3/5 184/3/5
f 190/3/5 184/3/5 183/3/5
f 191/3/5 185/3/5 190/3/5
f 192/7/5 186/7/5 185/7/5
f 192/3/5 185/3/5 191/3/5
f 193/7/5 186/7/5 192/7/5
f 194/3/5 188/3/5 187/3/5
f 194/7/5 186/7/5 193/7/5
f 194/3/5 187/3/5 186/3/5
f 195/3/5 188/3/5 194/3/5
f 196/3/5 188/3/5 195/3/5
f 198/3/5 191/3/5 190/3/5
f 198/3/5 190/3/5 189/3/5
f 199/3/5 191/3/5 198/3/5
f 200/3/5 197/3/5 196/3/5
f 200/3/5 196/3/5 195/3/5
f 201/3/5 197/3/5 200/3/5
f 203/2/5 193/2/5 192/2/5
f 204/1/5 194/1/5 193/1/5
f 204/2/5 193/2/5 203/2/5
f 205/1/5 194/1/5 204/1/5
f 207/3/5 198/3/5 189/3/5
f 208/3/5 198/3/5 207/3/5
f 209/5/5 203/5/5 202/5/5
f 210/5/5 203/5/5 209/5/5
f 211/5/5 206/5/5 205/5/5
f 212/5/5 206/5/5 211/5/5
f 213/3/5 197/3/5 201/3/5
f 214/3/5 197/3/5 213/3/5
f 215/6/5 209/6/5 208/6/5
f 216/6/5 209/6/5 215/6/5
f 217/6/5 213/6/5 212/6/5
f 218/6/5 213/6/5 217/6/5
f 219/4/6 220/4/6 224/4/6
f 224/4/6 220/4/6 225/4/6
f 221/4/6 222/4/6 226/4/6
f 226/4/6 222/4/6 227/4/6
f 224/3/6 225/3/6 230/3/6
f 223/3/6 224/3/6 230/3/6
f 230/3/6 225/3/6 231/3/6
f 225/7/6 226/7/6 232/7/6
f 231/3/6 225/3/6 232/3/6
f 232/7/6 226/7/6 233/7/6
f 227/3/6 228/3/6 234/3/6
f 233/7/6 226/7/6 234/7/6
f 226/3/6 227/3/6 234/3/6
f 234/3/6 228/3/6 235/3/6
f 235/3/6 228/3/6 236/3/6
f 230/3/6 231/3/6 238/3/6
f 229/3/6 230/3/6 238/3/6
f 238/3/6 231/3/6 239/3/6
f 236/3/6 237/3/6 240/3/6
f 235/3/6 236/3/6 240/3/6
f 240/3/6 237/3/6 241/3/6
f 232/2/6 233/2/6 243/2/6
f 233/1/6 234/1/6 244/1/6
f 243/2/6 233/2/6 244/2/6
f 244/1/6 234/1/6 245/1/6
f 229/3/6 238/3/6 247/3/6
f 247/3/6 238/3/6 248/3/6
f 242/5/6 243/5/6 249/5/6
f 249/5/6 243/5/6 250/5/6
f 245/5/6 246/5/6 251/5/6
f 251/5/6 246/5/6 252/5/6
f 241/3/6 237/3/6 253/3/6
f 253/3/6 237/3/6 254/3/6
f 248/6/6 249/6/6 255/6/6
f 255/6/6 249/6/6 256/6/6
f 252/6/6 253/6/6 257/6/6
f 257/6/6 253/6/6 258/6/6
